<svg width="286" height="50" viewBox="0 0 286 50" fill="none" xmlns="http://www.w3.org/2000/svg">
<path fill-rule="evenodd" clip-rule="evenodd" d="M147.18 0.00956229L147.185 2.82003C147.187 4.36519 147.216 8.12762 147.245 11.1797C147.285 15.1956 147.381 16.815 147.596 17.0398C147.838 17.2933 147.991 17.2551 148.434 16.8293C148.731 16.5447 149.514 16.0376 150.172 15.7027C150.83 15.3679 152.123 14.9301 153.045 14.7316C153.966 14.5331 155.582 14.3681 156.635 14.3681C157.688 14.3681 159.304 14.5259 160.226 14.7197C161.147 14.911 162.897 15.5544 164.115 16.15C165.523 16.8365 166.748 17.6449 167.476 18.3673C168.108 18.9916 168.884 19.8813 169.2 20.3406C169.518 20.7998 169.839 21.2328 169.913 21.2973C169.989 21.3619 170.224 21.6848 170.435 22.0149C170.643 22.3426 171.205 23.7442 171.682 25.1244C172.273 26.8417 172.623 28.3917 172.783 30.0277C172.912 31.3433 173.022 36.3758 173.032 50H167.766C163.754 50 162.48 49.9282 162.421 49.701C162.38 49.5359 162.382 45.5822 162.43 40.9108C162.483 35.6271 162.418 31.7427 162.258 30.6257C162.117 29.6378 161.808 28.4012 161.573 27.875C161.339 27.3488 160.819 26.5404 160.42 26.0811C160.02 25.6219 159.172 24.9737 158.538 24.646C157.53 24.1246 157.078 24.048 154.974 24.048C152.745 24.048 152.47 24.1006 151.273 24.7656C150.565 25.1602 149.629 25.9137 149.195 26.4399C148.762 26.9661 148.171 27.9348 147.879 28.5926C147.429 29.602 147.336 30.3076 147.269 33.1372C147.225 34.9789 147.187 39.5259 147.18 50H136.648L136.607 25.165C136.585 11.505 136.657 0.255922 136.767 0.169815C136.877 0.0813148 139.264 0.00956229 147.18 0.00956229ZM251.361 0L261.718 0.129157L261.958 26.9183L263.155 26.9853C263.813 27.0211 264.998 26.8824 265.788 26.6743C266.633 26.4495 267.717 25.9256 268.421 25.3946C269.079 24.9019 269.931 23.9643 270.314 23.3161C270.697 22.6655 271.159 21.704 271.343 21.1777C271.528 20.6515 271.753 18.9557 272.011 14.5977L282.663 14.6001L282.78 15.1382C282.843 15.4348 282.898 16.2409 282.9 16.9322C282.9 17.6234 282.788 19.0227 282.649 20.0416C282.51 21.0605 282.175 22.6488 281.904 23.5696C281.634 24.4905 281.021 26.0357 280.542 27.0068C280.064 27.9755 279.08 29.468 278.355 30.3267C277.629 31.183 276.942 32.0034 276.825 32.1517C276.691 32.3215 277.007 33.1659 277.689 34.4527C278.283 35.5697 279.204 37.2919 279.738 38.2797C280.274 39.2652 281.9 42.279 286 49.8804L279.604 49.945C276.085 49.9784 273.184 49.9258 273.153 49.8254C273.124 49.7225 272.581 48.7801 271.944 47.7277C271.31 46.6752 270.058 44.4149 269.16 42.7047C268.263 40.9945 266.826 38.3036 265.97 36.725C265.11 35.1464 264.016 33.2855 263.542 32.5918C263.066 31.8982 262.623 31.3265 262.556 31.3265C262.489 31.3241 262.31 31.4605 262.154 31.6327C261.951 31.8551 261.857 34.3738 261.821 40.6716C261.793 45.4745 261.73 49.5359 261.685 49.701C261.62 49.9282 260.34 50 251.066 50L251.074 25.5429C251.078 12.091 251.145 0.841934 251.222 0.542948L251.361 0ZM59.0919 14.2508C60.4731 14.313 62.467 14.5714 63.5203 14.8249C64.5735 15.0784 66.0265 15.5592 66.7518 15.8941C67.4746 16.2313 68.5997 16.9106 69.2508 17.4057C69.9019 17.9009 70.8761 18.8457 71.4195 19.5034C71.9604 20.1612 72.6522 21.3452 72.9538 22.1345C73.2578 22.9238 73.5594 24.2154 73.6241 25.0048C73.7031 25.9424 73.6025 26.9781 73.3344 27.9946C73.1118 28.8485 72.6809 30.0325 72.3793 30.6257C72.0777 31.2165 71.2543 32.245 70.5482 32.9076C69.842 33.5701 68.8869 34.3427 68.4273 34.6249C67.9654 34.9096 66.4047 35.5458 64.9565 36.0433C62.3928 36.9211 62.2325 36.945 58.8526 36.9546C56.0041 36.9618 55.037 36.8709 53.4667 36.4404C52.4135 36.1534 51.389 35.8496 51.1927 35.7683C50.994 35.6869 50.7571 35.7611 50.6661 35.9333C50.568 36.1151 50.8193 36.6724 51.2645 37.2632C51.6858 37.8229 52.514 38.5452 53.1077 38.8705C53.6989 39.1934 54.9915 39.6312 55.9801 39.8392C57.0716 40.0713 58.7592 40.2052 60.2888 40.1837C61.6699 40.1621 63.8793 39.9517 65.1958 39.7149C66.5124 39.4781 68.2598 39.1384 69.0784 38.9614C70.517 38.6505 70.5697 38.6553 70.5817 39.1169C70.5888 39.38 70.6726 41.4442 70.9407 47.8162L69.8636 48.2754C69.2699 48.529 67.7619 48.9906 66.5124 49.2991C64.4849 49.8038 63.695 49.8636 59.2116 49.8613C54.7474 49.8589 53.9694 49.7991 52.2699 49.3255C51.2167 49.0337 49.3304 48.2945 48.0809 47.6846C46.2019 46.7685 45.4718 46.2399 43.8872 44.6397C42.7741 43.5156 41.6514 42.102 41.211 41.2696C40.7921 40.4803 40.2296 39.1336 39.9591 38.2797C39.691 37.4234 39.3463 35.8089 39.1979 34.6919C39.0447 33.5629 38.9921 31.8073 39.0758 30.7453C39.1596 29.6929 39.4253 28.0783 39.6647 27.1575C39.9041 26.2366 40.4642 24.7297 40.907 23.8088C41.3499 22.8879 42.1876 21.5413 42.7693 20.819C43.3486 20.0942 44.1074 19.2547 44.4569 18.9485C44.8039 18.6447 45.68 17.9965 46.4053 17.5086C47.1282 17.0183 48.2054 16.394 48.799 16.1213C49.3903 15.8462 50.4148 15.4468 51.073 15.2315C51.7313 15.0139 53.2393 14.6814 54.4242 14.4877C55.8054 14.2604 57.4786 14.1767 59.0919 14.2508ZM195.533 14.2485C196.945 14.3035 198.936 14.569 200.081 14.8512C201.199 15.1287 202.977 15.7769 204.03 16.2911C205.083 16.8054 206.659 17.8482 207.53 18.6041C208.401 19.3623 209.385 20.3047 209.713 20.6994C210.043 21.094 210.634 22.0077 211.027 22.7325C211.42 23.4548 211.97 24.6938 212.253 25.4831C212.533 26.2725 212.928 27.887 213.126 29.071C213.351 30.4056 213.488 32.7449 213.488 35.2301C213.485 38.1864 213.612 39.9708 213.971 42.047C214.239 43.5921 214.778 45.9601 215.168 47.3091C215.558 48.6581 215.879 49.8134 215.879 49.8804C215.879 49.945 213.545 49.9737 205.51 49.8804L204.82 47.8473C204.442 46.7279 203.946 45.6276 203.721 45.4004C203.334 45.0057 203.236 45.0631 201.859 46.4767C201.06 47.2948 199.875 48.2515 199.226 48.6007C198.577 48.9475 197.237 49.4235 196.251 49.6556C194.865 49.9808 193.907 50.0454 192.062 49.933C190.745 49.8541 188.967 49.5862 188.112 49.335C187.255 49.0863 185.802 48.4907 184.881 48.0147C183.959 47.5363 182.513 46.5222 181.668 45.7616C180.823 45.0009 179.698 43.7859 179.169 43.0635C178.638 42.3388 177.891 41.0471 177.508 40.1932C177.123 39.3369 176.594 37.7774 176.328 36.725C175.99 35.376 175.849 34.0341 175.854 32.1804C175.859 30.353 176.012 28.9107 176.362 27.4564C176.637 26.306 177.168 24.7441 177.542 23.9882C177.915 23.2324 178.516 22.1823 178.872 21.6561C179.232 21.1299 180.084 20.1205 180.766 19.4101C181.448 18.7021 182.439 17.8243 182.966 17.4608C183.492 17.0948 184.785 16.4299 185.838 15.9802C186.891 15.5305 188.237 15.0306 188.83 14.8703C189.422 14.7101 190.606 14.4805 191.463 14.3633C192.318 14.2461 194.149 14.1935 195.533 14.2485ZM237.063 14.2485C238.775 14.2987 241.089 14.5044 242.21 14.7077C243.328 14.9086 244.728 15.2148 246.399 15.6979L246.518 26.0811L245.501 25.7128C244.941 25.5095 243.675 25.1387 242.688 24.8876C241.7 24.6364 239.816 24.3231 238.499 24.1915C237.058 24.048 235.486 24.036 234.55 24.1604C233.693 24.2728 232.616 24.5001 232.156 24.6627C231.694 24.8278 230.888 25.2559 230.361 25.6147C229.834 25.9759 229.171 26.5236 228.891 26.8322C228.609 27.1431 228.07 27.9874 227.694 28.7122C227.086 29.8818 227.01 30.2669 227.019 32.1804C227.029 33.9624 227.132 34.5388 227.613 35.5291C227.934 36.1868 228.683 37.2201 229.279 37.8253C229.873 38.4304 230.844 39.1575 231.438 39.4398C232.106 39.7579 233.286 40.021 234.55 40.1334C235.668 40.2315 237.607 40.2435 238.859 40.1574C240.108 40.0736 242.236 39.7244 243.586 39.38C244.936 39.038 246.147 38.7581 246.279 38.7581C246.43 38.7581 246.521 40.4994 246.538 48.2061L245.87 48.4979C245.501 48.6581 244.393 49.0217 243.407 49.3063C241.956 49.7249 240.757 49.8469 237.183 49.9426C233.559 50.0406 232.405 49.9856 230.84 49.6484C229.786 49.4211 228.116 48.914 227.129 48.5218C226.141 48.1295 224.587 47.3067 223.673 46.692C222.761 46.0773 221.487 44.9818 220.844 44.2594C220.197 43.5347 219.254 42.2431 218.747 41.3892C218.237 40.5329 217.665 39.3489 217.476 38.7581C217.287 38.1649 216.985 36.9809 216.805 36.127C216.623 35.2707 216.487 33.4409 216.497 32.0608C216.511 30.2884 216.679 28.9155 217.064 27.3967C217.366 26.2127 217.909 24.6508 218.273 23.9284C218.634 23.2037 219.257 22.1273 219.654 21.5365C220.051 20.9433 220.954 19.9124 221.66 19.2427C222.364 18.573 223.532 17.6497 224.257 17.1905C224.98 16.7312 226.272 16.0783 227.129 15.7386C227.984 15.399 229.547 14.9541 230.6 14.7484C231.654 14.5427 232.838 14.325 233.233 14.2676C233.628 14.2078 235.352 14.2006 237.063 14.2485ZM18.1597 14.4015C19.9646 14.3967 21.9729 14.5283 22.7077 14.6981C23.4306 14.8679 24.4551 15.143 24.9817 15.3128C25.5084 15.4827 26.7459 16.0089 27.7345 16.4801C28.9385 17.0565 30.0085 17.8124 30.9875 18.7787C31.7894 19.5728 32.8594 20.8668 33.3669 21.6561C33.8743 22.4454 34.5278 23.6821 34.8198 24.4068C35.1143 25.1291 35.5475 26.636 35.7893 27.7554C36.1723 29.5374 36.2249 31.0251 36.2321 49.8804H25.6999L25.4605 29.3102L24.6825 27.6956C24.0937 26.4758 23.6269 25.8802 22.7676 25.2631C22.1428 24.8158 21.092 24.3159 20.4337 24.158C19.7755 23.9978 18.4278 23.9141 17.4416 23.9715C16.1203 24.0456 15.3926 24.2226 14.6888 24.6364C14.1622 24.945 13.3723 25.5334 12.9319 25.94C12.4914 26.3466 11.7925 27.3249 10.6196 29.5493L10.6866 39.3561C10.7225 44.7498 10.6962 49.3518 10.6267 49.5814C10.5095 49.9665 10.0738 49.9952 0.0873002 49.8804L0.0130962 41.0304C-0.0323841 35.4119 0.041822 31.3074 0.216562 29.7885C0.367365 28.473 0.707268 26.6958 0.970575 25.8419C1.23628 24.9856 1.84428 23.5338 2.32541 22.6129C2.80654 21.6944 3.87652 20.2138 4.70474 19.324C5.53296 18.4366 6.33724 17.7095 6.49044 17.7095C6.64364 17.7095 6.99072 17.4918 7.25881 17.2263C7.52691 16.9632 8.60886 16.4012 9.66209 15.9826C10.7153 15.5616 12.3311 15.0354 13.2526 14.8129C14.3872 14.5403 15.9719 14.4063 18.1597 14.4015ZM86.8732 14.6001L86.9402 24.945C86.9857 32.1087 87.0934 35.5649 87.2921 36.1868C87.4477 36.6796 88.1418 37.6818 88.8336 38.4113C89.6977 39.3226 90.4278 39.8488 91.1675 40.088C91.7587 40.2794 92.7281 40.4348 93.3218 40.4348C93.913 40.4324 94.8298 40.308 95.3564 40.1597C95.9836 39.9827 96.7759 39.4278 97.6592 38.5452C98.6238 37.5837 99.0882 36.8996 99.3012 36.127C99.5143 35.3545 99.5957 32.355 99.5909 25.4831C99.5885 20.221 99.6316 15.619 99.7848 14.6001H110.317L110.398 25.0646C110.465 33.9696 110.537 35.6893 110.865 36.6054C111.081 37.1962 111.717 38.1434 112.282 38.7103C112.847 39.2748 113.685 39.8656 114.147 40.021C114.607 40.1765 115.791 40.3009 116.78 40.2961C117.96 40.2889 118.822 40.1526 119.293 39.899C119.688 39.6886 120.459 39.0475 121.007 38.4782C121.572 37.8898 122.18 36.9259 122.417 36.2466C122.724 35.364 122.834 34.2661 122.838 32.0608C122.841 30.4152 122.764 27.9946 122.668 26.6791C122.573 25.3635 122.166 22.4024 121.766 20.1014C121.364 17.798 120.995 15.619 120.849 14.6001H125.996C130.651 14.6001 131.164 14.6407 131.365 15.0186C131.484 15.2483 131.855 16.7815 132.183 18.4271C132.514 20.0703 132.897 22.467 133.038 23.749C133.179 25.0311 133.297 27.6693 133.299 29.6091C133.299 31.6949 133.15 34.0174 132.935 35.2899C132.732 36.4739 132.346 38.141 132.073 38.9973C131.803 39.8512 131.185 41.3007 130.702 42.2168C130.221 43.1305 129.33 44.4221 128.727 45.087C128.121 45.7496 126.884 46.7996 125.974 47.4191C125.065 48.0386 123.458 48.8399 122.405 49.2035C120.679 49.7943 120.158 49.8612 117.139 49.8708C114.231 49.878 113.565 49.8062 112.112 49.3135C111.191 49.0026 109.951 48.4452 109.36 48.0769C108.766 47.7085 107.796 46.8881 107.2 46.2519C106.607 45.6156 105.884 44.7737 105.075 43.6615L103.308 45.575C102.04 46.9503 101.077 47.7372 99.8853 48.3711C98.9733 48.8566 97.5275 49.4188 96.673 49.6221C95.816 49.8254 94.0399 49.9952 92.7234 50C91.1483 50.0024 89.7145 49.8493 88.5344 49.5527C87.5458 49.3039 85.93 48.6964 84.9438 48.2013C83.6489 47.5555 82.6435 46.7948 81.3389 45.4817C80.0368 44.1709 79.2852 43.1592 78.6508 41.8676C78.1673 40.8797 77.6072 39.4278 77.4061 38.6385C77.205 37.8492 76.9345 36.3423 76.8029 35.2899C76.6712 34.2374 76.5468 29.224 76.5252 24.1485C76.5037 19.0705 76.5755 14.8464 76.6856 14.7603C76.7957 14.6718 79.132 14.6001 86.8732 14.6001ZM55.1423 24.3279C54.4841 24.5288 53.4189 25.0861 52.775 25.5669C52.131 26.0476 51.5015 26.6552 51.377 26.9183C51.2167 27.2555 51.243 27.4828 51.4704 27.6885C51.6475 27.8487 52.6529 28.2051 53.7061 28.4754C54.8575 28.7744 56.4804 28.9849 57.7754 29.004C59.585 29.0327 60.1021 28.9514 61.0069 28.4945C61.5981 28.1931 62.2755 27.7698 62.5101 27.5521C62.7447 27.3345 62.9314 26.8872 62.9242 26.5595C62.9194 26.2294 62.6729 25.6099 62.3785 25.1818C62.0529 24.7058 61.5191 24.3111 61.0069 24.1676C60.5449 24.0361 59.3074 23.938 58.2541 23.9452C57.2009 23.9547 55.8006 24.1269 55.1423 24.3279ZM191.942 24.2011C191.48 24.3422 190.539 24.823 189.848 25.2703C189.156 25.7152 188.253 26.538 187.842 27.0977C187.43 27.6574 186.879 28.5974 186.616 29.1906C186.226 30.0732 186.157 30.6568 186.228 32.4196C186.293 34.0126 186.453 34.8522 186.841 35.6487C187.131 36.2395 187.787 37.2082 188.301 37.8014C188.837 38.4161 189.845 39.1791 190.649 39.5785C191.782 40.1406 192.464 40.3009 194.096 40.387C195.513 40.4611 196.531 40.3774 197.448 40.1167C198.242 39.8871 199.181 39.3776 199.817 38.8299C200.397 38.33 201.179 37.4641 201.553 36.9044C201.929 36.3447 202.41 35.2157 202.62 34.3929C202.884 33.374 202.958 32.477 202.85 31.5825C202.764 30.8577 202.537 29.8101 202.345 29.2504C202.151 28.6907 201.737 27.8296 201.424 27.3369C201.11 26.8441 200.545 26.1529 200.167 25.8037C199.791 25.4544 198.996 24.9187 198.405 24.6125C197.536 24.1652 196.887 24.048 195.054 24.0026C193.802 23.9715 192.402 24.06 191.942 24.2011Z" fill="#C0F207"/>
</svg>
